<svg xmlns="http://www.w3.org/2000/svg" xmlns:xlink="http://www.w3.org/1999/xlink" width="500" zoomAndPan="magnify" viewBox="0 0 375 374.999991" height="500" preserveAspectRatio="xMidYMid meet" version="1.0"><defs><clipPath id="id1"><path d="M 57.273438 86.59375 L 375 86.59375 L 375 288.34375 L 57.273438 288.34375 Z M 57.273438 86.59375 " clip-rule="nonzero"/></clipPath><clipPath id="id2"><path d="M 1 199 L 55 199 L 55 288.671875 L 1 288.671875 Z M 1 199 " clip-rule="nonzero"/></clipPath></defs><g clip-path="url(#id1)"><path fill="#5271ff" d="M 135.199219 204.875 C 135.066406 205.390625 134.714844 205.621094 134.257812 205.347656 C 133.714844 205.023438 133.238281 204.566406 132.703125 204.21875 C 132.625 204.167969 132.363281 204.398438 132.132812 204.53125 L 133.4375 206.414062 L 132.871094 207.164062 C 133.726562 209.035156 135.476562 210.34375 136.199219 212.304688 C 136.222656 212.367188 136.128906 212.472656 136.089844 212.558594 C 136 212.605469 135.863281 212.714844 135.832031 212.691406 C 134.113281 211.328125 133.261719 209.21875 131.699219 207.730469 C 131.101562 208.054688 131.390625 208.453125 131.460938 208.828125 C 131.613281 209.652344 132.664062 210.128906 132.367188 211.175781 C 131.460938 211.355469 131.421875 210.476562 131.007812 210.101562 C 130.53125 209.667969 130.265625 209.019531 129.585938 208.777344 C 128.996094 208.9375 128.515625 209.277344 128.925781 209.910156 C 129.511719 210.816406 130.234375 211.621094 130.890625 212.457031 C 130.671875 212.832031 129.910156 212.707031 130.035156 213.269531 C 130.269531 214.335938 129.757812 214.007812 129.257812 213.738281 C 129.011719 213.605469 128.808594 213.578125 128.714844 213.792969 C 128.648438 213.972656 128.597656 214.25 128.6875 214.371094 C 129.59375 215.585938 130.582031 216.753906 131.210938 218.078125 C 130.808594 218.8125 130.484375 218.457031 130.183594 218.175781 C 129.878906 217.894531 129.695312 217.433594 129.167969 217.472656 C 128.65625 215.921875 128.65625 215.921875 126.824219 214.5 C 127.367188 216.195312 127.367188 216.195312 129.226562 217.417969 L 128.242188 219.03125 C 127.679688 219.316406 127.335938 219.03125 127.011719 218.742188 C 126.289062 218.09375 125.582031 217.410156 124.839844 216.773438 C 124.773438 216.71875 124.476562 216.929688 124.261719 217.035156 C 126.015625 219.902344 128.324219 222.402344 129.835938 225.414062 C 129.675781 225.773438 129.429688 225.859375 129.128906 225.609375 C 128.003906 224.675781 127.425781 223.328125 126.59375 222.175781 C 125.703125 220.9375 124.820312 219.710938 123.519531 218.757812 C 123.273438 220.382812 123.273438 220.382812 126.265625 223.683594 C 125.929688 224.195312 125.566406 224.011719 125.230469 223.710938 C 124.460938 223.015625 123.707031 222.308594 122.902344 221.566406 C 122.507812 222.527344 123.265625 222.886719 123.546875 223.417969 C 124.03125 224.320312 123.730469 224.511719 122.851562 224.3125 C 122.757812 225.136719 122.097656 225.089844 121.417969 225.175781 C 122.246094 226.984375 123.855469 228.25 124.671875 229.886719 C 124.34375 230.449219 124.015625 230.371094 123.808594 230.121094 C 122.539062 228.605469 121.28125 227.078125 120.039062 225.539062 C 119.839844 225.289062 119.734375 224.96875 119.515625 224.550781 C 118.957031 225.632812 118.957031 225.632812 121.253906 228.867188 C 121.074219 229.207031 120.785156 229.300781 120.507812 229.046875 C 119.710938 228.324219 118.941406 227.550781 118.085938 226.726562 C 118.132812 227.84375 118.132812 227.84375 120.375 230.253906 C 120.125 230.585938 119.832031 230.527344 119.554688 230.316406 C 118.902344 229.824219 118.46875 229.011719 117.605469 228.828125 C 117.128906 229.421875 117.550781 229.734375 117.800781 230.046875 C 118.210938 230.554688 118.683594 231.015625 119.128906 231.492188 C 118.667969 232.320312 119.226562 232.890625 119.625 233.507812 C 119.652344 233.546875 119.578125 233.6875 119.519531 233.738281 C 119.460938 233.789062 119.308594 233.886719 119.246094 233.859375 C 118.949219 233.746094 118.671875 233.597656 118.414062 233.410156 C 117.328125 232.507812 116.242188 231.5625 115.253906 230.710938 C 114.28125 230.902344 115.074219 232.597656 113.226562 231.769531 L 114.429688 233.550781 C 114.277344 233.648438 114.070312 233.867188 113.980469 233.824219 C 113.40625 233.527344 112.863281 233.175781 112.285156 232.828125 C 110.851562 233.875 109.308594 234.609375 107.515625 234.882812 C 106.566406 235.03125 105.683594 235.589844 104.75 235.90625 C 104.285156 236.066406 103.917969 235.816406 103.675781 235.410156 C 103.5625 235.003906 103.816406 234.738281 104.101562 234.617188 C 105.101562 234.171875 106.101562 233.675781 107.15625 233.402344 C 108.707031 232.996094 109.960938 232.136719 111.085938 231.085938 C 112.445312 229.808594 113.800781 228.535156 114.933594 227.023438 C 117.039062 224.210938 119.15625 221.421875 120.925781 218.359375 C 122.738281 215.230469 124.71875 212.199219 126.28125 208.960938 C 126.109375 208.171875 125.53125 207.996094 124.878906 207.921875 C 124.421875 208.441406 125.398438 208.875 124.957031 209.390625 C 124.773438 209.46875 124.515625 209.679688 124.402344 209.621094 C 123.359375 209.078125 122.296875 209.257812 121.253906 209.511719 C 120.417969 209.726562 119.625 210.070312 119.050781 210.269531 C 117.804688 210.269531 117.414062 209.183594 116.585938 209.015625 C 116.175781 209.257812 116.109375 209.539062 116.359375 209.828125 C 117 210.570312 117.972656 210.992188 118.425781 211.945312 C 118.292969 212.609375 117.882812 212.949219 117.308594 212.488281 C 116.542969 211.882812 115.890625 211.132812 115.246094 210.5 C 114.226562 210.535156 113.261719 210.785156 112.351562 211.253906 C 111.613281 211.097656 111.183594 210.261719 110.429688 210.289062 C 110.25 210.441406 110.09375 210.523438 110.097656 210.585938 C 110.175781 211.429688 111.015625 211.78125 111.328125 212.46875 C 111.394531 212.617188 111.269531 212.863281 111.195312 213.050781 C 111.160156 213.140625 111.015625 213.265625 110.957031 213.25 C 110.640625 213.164062 110.34375 212.996094 110.027344 212.933594 C 109.386719 212.8125 108.730469 212.675781 108.199219 213.242188 C 108.21875 214.308594 109.105469 214.640625 109.796875 215.152344 C 110.070312 215.355469 110.160156 215.667969 109.828125 215.972656 C 109.710938 216.09375 109.566406 216.15625 109.398438 216.160156 C 109.230469 216.164062 109.082031 216.109375 108.960938 215.992188 C 108.703125 215.785156 108.460938 215.566406 108.234375 215.328125 C 107.445312 214.570312 106.667969 213.792969 105.855469 213.0625 C 105.796875 212.996094 105.726562 212.949219 105.644531 212.914062 C 105.5625 212.882812 105.476562 212.867188 105.386719 212.875 C 105.300781 212.878906 105.21875 212.902344 105.140625 212.949219 C 105.0625 212.992188 105 213.050781 104.949219 213.121094 C 105.019531 214.0625 106.167969 214.285156 106.382812 215.160156 C 106.335938 215.957031 105.464844 216.011719 105.09375 216.527344 C 104.703125 217.238281 106.011719 217.878906 105.171875 218.609375 C 104.554688 218.664062 104.269531 218.113281 103.816406 217.859375 C 103.59375 218 103.519531 218.21875 103.707031 218.414062 C 104.398438 219.117188 105.15625 219.765625 105.796875 220.5 C 106.015625 220.746094 105.773438 221.09375 105.394531 221.308594 C 104.425781 221.207031 103.945312 220.207031 103.15625 219.746094 C 102.582031 220.308594 103.671875 220.71875 103.179688 221.246094 C 102.363281 221.933594 101.933594 220.507812 101.152344 220.851562 C 100.910156 221.46875 101.210938 222.25 100.480469 222.765625 C 99.949219 223.140625 100.417969 224.09375 99.726562 224.484375 C 99.09375 224.476562 98.796875 223.984375 98.433594 223.582031 C 98.074219 223.179688 97.738281 222.820312 96.875 222.710938 C 97.597656 224.519531 98.746094 225.640625 99.851562 226.703125 C 99.804688 226.992188 99.828125 227.230469 99.722656 227.375 C 99.617188 227.519531 99.371094 227.613281 99.1875 227.726562 C 96.355469 224.335938 96.355469 224.335938 95.351562 224.292969 C 95.144531 225.089844 96.816406 225.503906 95.796875 226.460938 C 95.0625 226.277344 94.710938 224.984375 93.625 225.605469 C 93.769531 226.765625 94.894531 227.21875 95.132812 228.203125 C 93.804688 229.671875 93.804688 229.671875 91.363281 228.128906 C 91.101562 228.84375 91.832031 228.960938 92.058594 229.332031 C 92.339844 229.792969 92.238281 230.128906 91.785156 230.519531 L 90.054688 229.097656 C 89.65625 229.28125 89.726562 229.605469 89.925781 229.835938 C 90.636719 230.660156 91.425781 231.429688 92.109375 232.277344 C 92.289062 232.492188 92.082031 232.867188 91.589844 233.054688 C 91.242188 232.75 90.832031 232.402344 90.425781 232.046875 C 90.109375 231.773438 89.824219 231.425781 89.324219 231.535156 C 89.214844 232.4375 89.214844 232.4375 90.046875 233.769531 C 90.058594 234.457031 89.167969 234.375 89.0625 234.851562 C 89.460938 236.972656 91.847656 237.722656 92.191406 239.800781 C 92.207031 239.878906 92.09375 239.980469 91.980469 240.183594 C 90.5 239.773438 89.988281 238.375 89.128906 237.351562 C 88.226562 236.265625 87.605469 234.925781 86.277344 234.027344 C 85.347656 234.304688 84.785156 235.183594 83.964844 235.65625 C 82.917969 235.515625 82.527344 234.320312 81.609375 234.09375 C 81.203125 234.300781 80.980469 234.578125 81.152344 234.890625 C 81.648438 235.78125 82.5625 236.238281 83.285156 236.894531 C 83.800781 237.363281 83.496094 237.871094 82.925781 238.191406 C 82.070312 238.289062 81.839844 237.105469 80.957031 237.257812 C 80.945312 236.554688 80.5 236.09375 80.03125 235.660156 C 79.777344 235.429688 79.410156 235.335938 79.25 235.71875 C 79.144531 236.011719 79.171875 236.292969 79.332031 236.5625 C 79.519531 236.832031 79.769531 237.027344 80.078125 237.140625 C 80.390625 237.253906 80.703125 237.269531 81.023438 237.1875 C 80.839844 238.589844 79.613281 239.027344 78.601562 239.757812 C 78.078125 239.21875 77.5625 238.660156 77.03125 238.117188 C 76.8125 237.898438 76.125 237.976562 76.15625 238.199219 C 76.183594 238.417969 76.179688 238.640625 76.296875 238.757812 C 76.902344 239.378906 77.539062 239.964844 78.125 240.523438 C 77.671875 242.472656 77.667969 242.472656 78.773438 243.777344 C 78.929688 243.929688 79.074219 244.09375 79.203125 244.269531 C 79.292969 244.476562 79.359375 244.691406 79.40625 244.914062 L 78.679688 245.542969 C 78.164062 244.910156 77.695312 244.300781 77.183594 243.734375 C 76.972656 243.496094 76.625 243.125 76.425781 243.175781 C 74.976562 243.535156 74.074219 242.554688 73.203125 241.464844 C 72.597656 242.625 73.3125 242.808594 73.589844 243.191406 C 73.78125 243.453125 74.035156 243.667969 74.242188 243.914062 C 74.453125 244.15625 74.371094 244.773438 74.140625 244.785156 C 73.949219 244.820312 73.761719 244.804688 73.578125 244.742188 C 72.898438 244.402344 72.59375 243.539062 71.75 243.414062 C 71.441406 243.507812 71.386719 243.664062 71.613281 243.882812 L 76.160156 248.523438 C 76.191406 249.136719 75.914062 249.410156 75.4375 249.53125 C 74.042969 248.886719 73.832031 246.902344 72.140625 246.597656 C 71.636719 246.960938 72.523438 247.722656 71.355469 248.042969 C 70.570312 248.09375 70.296875 246.699219 69.300781 246.613281 C 68.9375 246.738281 68.652344 247.070312 68.804688 247.339844 C 69.007812 247.6875 69.453125 247.878906 69.773438 248.171875 C 70.230469 248.585938 70.496094 249.242188 69.953125 249.570312 C 68.984375 250.15625 70.277344 251.214844 69.484375 251.558594 C 68.761719 251.867188 68.148438 252.230469 67.714844 252.851562 C 67.1875 253.613281 66.78125 254.464844 65.875 254.988281 L 67.433594 257.210938 C 67.363281 257.40625 67.261719 257.585938 67.136719 257.753906 C 66.6875 258.175781 66.320312 257.835938 66.050781 257.519531 C 65.445312 256.769531 65.089844 255.796875 64.214844 255.261719 C 63.402344 255.558594 64.234375 256.527344 63.378906 256.933594 L 62.164062 256.089844 C 61.691406 256.554688 62.140625 256.871094 62.34375 257.21875 C 62.523438 257.53125 62.566406 257.847656 62.257812 258.070312 C 62.082031 258.183594 61.894531 258.203125 61.699219 258.128906 C 60.339844 257.253906 59.230469 257.453125 58.300781 258.792969 C 58.140625 259.023438 57.828125 259.152344 57.566406 259.335938 C 57.492188 259.074219 57.324219 258.816406 57.398438 258.6875 C 57.65625 258.199219 57.964844 257.746094 58.320312 257.324219 C 61.394531 253.734375 63.820312 249.652344 66.996094 246.140625 C 67.96875 245.089844 68.824219 243.953125 69.5625 242.726562 C 71.949219 238.632812 75.445312 235.675781 79.214844 232.964844 C 81.457031 231.382812 83.777344 229.925781 86.179688 228.597656 C 90.363281 226.246094 93.878906 223.136719 96.722656 219.273438 C 98.15625 217.335938 99.625 215.425781 101.132812 213.539062 C 103.664062 210.371094 106.828125 208.117188 110.742188 206.890625 C 113.898438 205.925781 117.121094 205.273438 120.402344 204.933594 C 122.691406 204.683594 124.980469 204.414062 127.28125 204.195312 C 127.78125 204.167969 128.246094 204.023438 128.671875 203.765625 C 129.101562 203.503906 129.441406 203.15625 129.695312 202.722656 C 130.625 201.238281 131.675781 199.820312 132.566406 198.308594 C 134.433594 195.128906 137.359375 193.25 140.578125 191.757812 C 141.585938 191.261719 142.652344 191.042969 143.777344 191.097656 C 144.761719 191.171875 145.753906 191.125 146.742188 191.132812 C 149.851562 191.160156 152.824219 190.339844 155.828125 189.6875 C 156.632812 189.507812 157.175781 188.988281 157.75 188.472656 C 160.765625 185.738281 163.507812 182.753906 165.984375 179.519531 C 168.066406 176.832031 170.203125 174.179688 172.355469 171.546875 C 173.886719 169.671875 175.246094 167.683594 176.429688 165.570312 C 178.152344 162.515625 180.160156 159.625 181.945312 156.601562 C 185.851562 149.984375 189.726562 143.347656 192.800781 136.277344 C 193.757812 134.066406 194.972656 131.960938 196.15625 129.855469 C 197.300781 127.824219 198.921875 126.179688 200.683594 124.65625 C 202.332031 123.199219 204.105469 121.910156 206.003906 120.792969 C 208.847656 119.140625 211.671875 117.449219 214.46875 115.710938 C 215.398438 115.136719 216.203125 114.371094 217.078125 113.707031 C 218.910156 112.3125 220.746094 110.933594 222.578125 109.539062 C 224.4375 108.152344 226.089844 106.550781 227.523438 104.726562 C 228.390625 103.597656 229.378906 102.558594 230.355469 101.515625 C 232.097656 99.644531 234.089844 98.125 236.507812 97.203125 C 237.320312 96.867188 238.109375 96.476562 238.871094 96.039062 C 241.183594 94.765625 243.621094 93.816406 246.183594 93.191406 C 249.898438 92.304688 253.601562 91.226562 257.085938 89.542969 C 259.984375 88.140625 263.199219 87.785156 266.277344 87.011719 C 267.882812 86.601562 269.570312 86.976562 271.164062 87.433594 C 272.46875 87.8125 273.5 88.734375 274.289062 89.773438 C 277.066406 93.449219 280.046875 96.976562 282.351562 100.996094 C 284.429688 104.609375 286.308594 108.335938 288.5625 111.855469 C 289.796875 113.78125 290.683594 115.921875 291.914062 117.875 C 296.785156 125.582031 301.15625 133.5625 305.03125 141.8125 C 306.660156 145.308594 308.859375 148.464844 310.550781 151.910156 C 311.511719 153.875 312.605469 155.777344 313.574219 157.734375 C 314.367188 159.339844 315.5625 160.644531 316.730469 161.9375 C 318.789062 164.203125 320.867188 166.421875 323.511719 168.113281 C 327.492188 170.660156 331.332031 173.421875 334.730469 176.746094 C 334.882812 176.90625 335.042969 177.058594 335.210938 177.199219 C 340.804688 181.585938 344.394531 187.449219 347.441406 193.71875 C 347.96875 194.804688 348.546875 195.871094 349.109375 196.9375 C 350.554688 199.652344 351.800781 202.457031 352.851562 205.347656 C 354.964844 211.226562 357.242188 217.050781 359.449219 222.898438 C 359.699219 223.507812 359.917969 224.128906 360.097656 224.761719 C 361.09375 228.714844 363.316406 231.929688 366.070312 234.832031 C 366.371094 235.148438 366.738281 235.4375 366.929688 235.8125 C 368.289062 238.445312 369.613281 241.097656 370.929688 243.753906 C 371.015625 243.960938 371.035156 244.171875 370.984375 244.390625 C 370.941406 244.605469 370.832031 244.777344 370.65625 244.910156 C 370.457031 245 370.261719 244.996094 370.070312 244.894531 C 369.410156 244.433594 369.1875 243.664062 368.832031 242.992188 C 367.546875 240.570312 366.246094 238.152344 364.546875 235.984375 C 363.9375 235.207031 363.296875 234.457031 362.683594 233.683594 C 360.957031 231.515625 359.605469 229.164062 358.960938 226.429688 C 358.8125 225.796875 358.480469 225.210938 358.25 224.601562 C 357.597656 222.855469 356.886719 221.128906 356.324219 219.359375 C 354.878906 214.761719 353.066406 210.300781 351.285156 205.820312 C 349.949219 202.453125 348.449219 199.15625 346.816406 195.953125 C 344.636719 191.664062 342.199219 187.46875 339.304688 183.589844 C 337.789062 181.554688 335.730469 180.035156 333.914062 178.285156 C 330.335938 174.832031 326.109375 172.242188 322.152344 169.292969 C 319.164062 167.066406 316.152344 164.839844 313.988281 161.710938 C 313.492188 160.988281 312.980469 160.265625 312.554688 159.507812 C 310.09375 155.105469 307.617188 150.710938 305.21875 146.273438 C 303.867188 143.765625 302.65625 141.183594 301.382812 138.628906 C 299.332031 134.503906 297.070312 130.496094 294.738281 126.519531 C 291.964844 121.792969 289.261719 117.027344 286.5625 112.257812 C 284.40625 108.4375 282.304688 104.582031 280.175781 100.742188 C 280.027344 100.441406 279.855469 100.15625 279.667969 99.878906 C 277.640625 97.148438 275.617188 94.410156 273.546875 91.714844 C 273.09375 91.121094 272.59375 90.5 271.816406 90.265625 C 271.726562 90.332031 271.644531 90.402344 271.566406 90.476562 C 271.980469 91.101562 272.414062 91.714844 272.824219 92.3125 C 272.523438 92.726562 272.246094 92.671875 271.964844 92.402344 C 270.789062 91.289062 269.8125 89.945312 268.347656 89.148438 C 268.265625 89.277344 268.140625 89.410156 268.164062 89.453125 C 268.605469 90.199219 269.070312 90.9375 269.644531 91.871094 L 268.921875 92.351562 C 268.941406 92.550781 268.894531 92.785156 268.988281 92.933594 C 269.398438 93.578125 269.839844 94.199219 270.28125 94.828125 C 270.558594 95.207031 270.632812 95.621094 270.507812 96.074219 L 270.574219 96.007812 C 269.621094 95.765625 269.296875 94.859375 268.75 94.210938 C 268.207031 93.5625 267.78125 92.742188 266.964844 92.246094 L 266.242188 93.242188 C 265.042969 92.453125 264.757812 90.8125 263.390625 90.195312 C 263.320312 90.164062 263.210938 90.253906 263.0625 90.304688 C 262.816406 90.917969 263.398438 91.238281 263.644531 91.640625 C 264.03125 92.269531 263.882812 92.90625 263.863281 93.554688 C 263.847656 94.007812 263.234375 94.230469 262.847656 93.992188 C 261.691406 93.265625 261.011719 92.136719 260.238281 91.082031 C 260.078125 90.941406 259.898438 90.90625 259.695312 90.964844 C 259.554688 91.042969 259.390625 91.375 259.445312 91.476562 C 259.929688 92.332031 260.449219 93.164062 260.972656 93.992188 C 261.316406 94.53125 261.929688 94.90625 261.910156 95.644531 C 260.90625 95.386719 260.777344 95.273438 259.597656 93.910156 C 258.960938 93.171875 258.550781 92.226562 257.65625 91.738281 C 257.265625 91.792969 256.878906 92.078125 257.023438 92.355469 C 257.519531 93.324219 258.136719 94.226562 258.714844 95.15625 C 258.929688 95.503906 259.324219 95.785156 259.101562 96.457031 C 257.5 95.746094 257.09375 93.816406 255.578125 93.007812 C 255.242188 94.113281 256.550781 94.507812 256.484375 95.347656 C 256.429688 96.070312 256.027344 96.757812 256.085938 97.546875 C 256.148438 98.394531 256.628906 98.976562 257.171875 99.511719 C 259.003906 101.289062 260.308594 103.460938 261.714844 105.554688 C 261.976562 105.949219 262.359375 106.425781 262.078125 106.992188 C 261.96875 107.039062 261.855469 107.066406 261.738281 107.078125 C 261.632812 107.066406 261.546875 107.019531 261.476562 106.9375 C 260.28125 105.363281 259.25 103.632812 257.875 102.238281 C 255.433594 99.71875 253.570312 96.707031 251.089844 94.214844 C 251.035156 94.160156 250.875 94.179688 250.777344 94.203125 C 250.636719 94.269531 250.5 94.347656 250.378906 94.441406 C 250.921875 96.359375 253.109375 97.460938 253.382812 99.890625 C 251.488281 99.09375 251.238281 97.011719 249.714844 96.285156 C 249.160156 96.867188 250.101562 97.277344 249.742188 97.859375 L 248.558594 98.09375 C 248.289062 98.230469 248.367188 98.382812 248.414062 98.636719 C 248.667969 99.910156 249.4375 100.972656 250.085938 102.230469 C 249.027344 102.328125 248.875 101.589844 248.507812 101.164062 C 248.078125 100.664062 247.710938 100.117188 247.289062 99.609375 C 246.871094 99.105469 246.429688 98.609375 245.972656 98.132812 C 245.511719 97.65625 245.152344 97.117188 244.476562 96.933594 C 243.820312 97.863281 244.789062 98.332031 245 99 C 245.207031 99.667969 246.210938 100.023438 245.902344 100.96875 C 245.347656 101.109375 245.25 100.578125 244.957031 100.34375 C 244.53125 100.003906 244.148438 99.597656 243.691406 99.308594 C 243.363281 99.101562 243.046875 98.695312 242.425781 98.988281 L 243.328125 100.765625 C 243.074219 101.035156 242.925781 100.984375 242.71875 100.777344 C 242.007812 100.09375 241.300781 99.40625 240.558594 98.753906 C 240.476562 98.683594 240.199219 98.839844 239.816406 98.9375 C 241.082031 100.742188 242.320312 102.507812 243.5625 104.261719 C 243.8125 104.625 244.15625 104.921875 244.105469 105.410156 C 244.070312 105.519531 244.007812 105.601562 243.90625 105.65625 C 243.84375 105.699219 243.683594 105.722656 243.65625 105.683594 C 242.988281 104.828125 242.335938 103.960938 241.664062 103.105469 C 241.253906 102.582031 240.507812 102.527344 240.195312 102.839844 C 239.558594 103.488281 238.808594 103.523438 238.042969 103.765625 C 236.933594 104.117188 236.671875 102.777344 235.777344 102.890625 C 235.703125 102.972656 235.597656 103.042969 235.5625 103.136719 C 235.527344 103.246094 235.535156 103.351562 235.585938 103.453125 C 236.652344 105.230469 237.726562 107.003906 238.769531 108.726562 C 238.515625 109.285156 238.210938 109.070312 238.023438 108.84375 C 237.394531 108.082031 236.78125 107.300781 236.214844 106.492188 C 235.59375 105.574219 234.839844 104.78125 233.953125 104.117188 C 233.488281 104.523438 233.792969 104.878906 234.027344 105.21875 C 234.527344 105.941406 235.042969 106.640625 235.550781 107.347656 C 234.683594 108.371094 234.5625 106.871094 233.535156 107.449219 L 233.117188 107.917969 C 232.175781 107.039062 231.234375 106.164062 230.042969 105.058594 C 230.441406 106.304688 230.472656 106.355469 231.414062 107.3125 C 232.03125 107.9375 232.699219 108.523438 233.25 109.203125 C 233.785156 109.898438 234.273438 110.628906 234.710938 111.390625 C 235.140625 112.097656 235.902344 112.742188 235.21875 113.878906 C 233.652344 111.550781 232.445312 109.027344 230.015625 107.527344 C 229.363281 107.886719 229.542969 108.460938 229.804688 108.875 C 230.273438 109.617188 230.890625 110.257812 231.394531 110.976562 C 232.082031 111.960938 232.726562 112.976562 233.386719 113.964844 L 232.34375 115.445312 C 232.90625 117.777344 234.1875 119.839844 235.265625 121.972656 C 237.59375 126.574219 240.050781 131.113281 241.914062 135.933594 C 242.46875 137.367188 243.164062 138.742188 243.832031 140.125 C 245.035156 142.601562 245.875 145.210938 246.695312 147.824219 C 248.113281 152.328125 248.992188 156.960938 249.917969 161.578125 C 250.105469 162.664062 250.15625 163.757812 250.070312 164.859375 C 249.945312 167.191406 250.359375 169.449219 250.820312 171.707031 C 251.453125 174.824219 253.21875 177.351562 255.261719 179.671875 C 256.5625 181.152344 258.039062 182.484375 259.511719 183.804688 C 260.734375 184.90625 262.054688 185.890625 263.339844 186.917969 C 265.910156 188.980469 268.46875 191.0625 271.0625 193.09375 C 272.792969 194.449219 274.554688 195.75 276.03125 197.410156 C 277.21875 198.742188 278.1875 200.140625 278.78125 201.84375 C 279.433594 203.707031 280.082031 205.5625 280.640625 207.464844 C 281.78125 211.359375 283.113281 215.183594 285.347656 218.644531 C 286.714844 220.757812 287.78125 223.078125 289.179688 225.167969 C 292.046875 229.453125 295.050781 233.652344 298 237.882812 C 298.304688 238.324219 298.632812 238.753906 299.097656 239.398438 C 297.628906 239.359375 296.636719 239.035156 295.90625 237.96875 C 293.496094 234.433594 290.960938 230.976562 288.628906 227.390625 C 286.476562 224.085938 284.425781 220.703125 282.515625 217.253906 C 281.519531 215.414062 280.757812 213.484375 280.234375 211.460938 C 279.488281 208.707031 278.519531 206.015625 277.671875 203.292969 C 276.824219 200.570312 275.136719 198.453125 272.953125 196.691406 C 270.988281 195.105469 268.988281 193.5625 267 191.992188 C 264.761719 190.226562 262.492188 188.5 260.289062 186.6875 C 257.230469 184.171875 254.269531 181.535156 252.046875 178.214844 C 251.140625 176.867188 249.53125 176.523438 248.449219 175.453125 C 248.359375 175.363281 248.011719 175.402344 247.890625 175.507812 C 247.738281 175.664062 247.683594 175.851562 247.726562 176.066406 C 247.941406 176.449219 248.175781 176.820312 248.433594 177.171875 C 248.617188 177.445312 248.796875 177.714844 248.542969 178.078125 C 247.863281 178.367188 247.71875 177.191406 247.019531 177.457031 C 246.917969 177.519531 246.863281 177.613281 246.851562 177.730469 C 246.84375 177.847656 246.882812 177.949219 246.972656 178.027344 C 247.902344 179.113281 248.878906 180.15625 249.757812 181.28125 C 250.199219 181.851562 250.84375 182.394531 250.605469 183.429688 C 249.714844 183.339844 249.558594 182.480469 249.082031 182.011719 C 248.554688 181.453125 247.992188 180.933594 247.394531 180.449219 C 246.785156 179.996094 246.09375 179.660156 245.402344 179.253906 C 245.4375 180.542969 245.4375 180.542969 247.226562 183.0625 C 247.078125 183.558594 246.8125 183.316406 246.5625 183.167969 C 245.761719 182.695312 245.386719 181.664062 244.402344 181.359375 C 244.042969 182.105469 244.660156 182.433594 244.824219 182.910156 C 244.957031 183.292969 245.421875 183.5625 245.203125 184.09375 C 244.007812 183.824219 243.585938 182.457031 242.335938 182.089844 C 241.613281 183.859375 244.3125 184.378906 243.78125 186.015625 C 242.476562 185.773438 242.144531 184.027344 240.503906 183.957031 C 241.324219 185.460938 242.730469 186.367188 243.46875 187.648438 C 243.257812 188.066406 243.105469 188.121094 242.925781 187.960938 C 241.8125 186.953125 240.285156 186.585938 238.976562 184.777344 C 239.339844 187.183594 241.015625 187.917969 241.390625 189.410156 C 240.664062 190.007812 239.507812 189.855469 238.929688 190.871094 C 240.375 192.859375 241.835938 194.890625 243.292969 196.925781 C 243.328125 196.96875 243.226562 197.105469 243.140625 197.3125 C 241.667969 196.828125 241.253906 195.386719 240.402344 194.359375 C 239.496094 193.277344 238.558594 192.21875 237.492188 190.984375 C 237.378906 192.867188 237.800781 194.34375 238.78125 195.664062 C 238.078125 195.917969 237.4375 195.964844 237.238281 196.785156 L 235.320312 195.117188 C 234.941406 195.359375 234.921875 195.660156 235.097656 195.949219 C 235.457031 196.566406 236.195312 197.035156 235.6875 197.96875 C 235.570312 198.1875 235.992188 198.714844 236.179688 199.089844 C 236.550781 199.835938 237.339844 200.355469 237.433594 201.269531 C 236.617188 201.527344 236.488281 200.515625 235.851562 200.546875 C 235.46875 200.816406 235.742188 201.128906 235.773438 201.433594 C 235.792969 201.613281 235.820312 201.882812 235.714844 201.992188 C 235.445312 202.269531 235.144531 202.171875 234.894531 201.902344 C 234.410156 201.375 234.273438 200.488281 233.359375 200.40625 C 233.265625 200.492188 233.101562 200.601562 233.117188 200.636719 C 233.363281 201.242188 233.628906 201.835938 233.921875 202.496094 C 233.632812 202.703125 233.265625 202.882812 233.019531 203.167969 C 232.769531 203.457031 232.835938 203.949219 232.367188 204.195312 C 231.679688 204.558594 232.054688 205.863281 230.917969 205.890625 C 230.421875 206.613281 229.890625 207.304688 229.441406 208.050781 C 228.929688 208.902344 228.0625 208.984375 227.230469 209.203125 C 226.765625 208.699219 226.953125 208.160156 227.242188 207.703125 C 228.738281 205.355469 229.414062 202.703125 230.285156 200.113281 C 231.023438 197.929688 231.84375 195.773438 232.636719 193.605469 C 232.816406 193.089844 233.132812 192.601562 233.222656 192.070312 C 233.742188 189.039062 235.628906 186.679688 237.132812 184.148438 C 237.671875 183.230469 238.601562 182.523438 239.394531 181.769531 C 240.027344 181.164062 240.71875 180.613281 241.394531 180.058594 C 245.398438 176.761719 247.007812 172.328125 247.476562 167.351562 C 247.507812 167.023438 247.511719 166.691406 247.574219 166.367188 C 248.460938 161.710938 247.457031 157.238281 246.421875 152.730469 C 245.382812 148.222656 243.589844 143.984375 241.714844 139.765625 C 240.117188 136.148438 238.757812 132.4375 236.9375 128.917969 C 236.332031 127.753906 235.765625 126.570312 235.175781 125.390625 C 233.496094 122.058594 231.789062 118.738281 230.152344 115.386719 C 229.609375 114.277344 228.917969 113.339844 227.90625 112.640625 C 227.25 112.957031 227.582031 113.570312 227.453125 114.042969 C 227.320312 114.519531 226.96875 114.226562 226.65625 114.136719 C 226.195312 115.050781 227.160156 115.445312 227.421875 116.089844 C 227.710938 116.796875 228.078125 117.476562 228.414062 118.167969 C 228.707031 118.761719 229.007812 119.347656 229.304688 119.933594 C 229.648438 120.621094 230.015625 121.300781 230.335938 122 C 230.640625 122.660156 231.265625 123.265625 230.699219 124.28125 C 229.925781 123.621094 229.496094 122.777344 229 122.019531 C 228.457031 121.195312 228.066406 120.277344 227.609375 119.398438 C 227.207031 118.621094 226.820312 117.835938 226.410156 117.0625 C 225.945312 116.191406 225.527344 115.28125 224.964844 114.472656 C 224.441406 113.722656 224.328125 112.617188 223.292969 112.261719 C 222.882812 112.730469 223.007812 113.148438 223.195312 113.554688 C 223.523438 114.253906 223.875 114.9375 224.195312 115.636719 C 224.417969 116.125 224.195312 116.484375 223.757812 116.699219 C 223.265625 116.945312 222.898438 116.644531 222.671875 116.277344 C 222.441406 115.910156 222.367188 115.441406 222.128906 115.089844 C 221.914062 114.84375 221.648438 114.679688 221.332031 114.597656 C 221.109375 114.527344 220.941406 115.292969 221.007812 115.734375 C 221.097656 116.351562 221.851562 116.792969 221.453125 117.566406 C 220.414062 117.605469 220.484375 116.179688 219.492188 116.121094 C 219.390625 116.203125 219.175781 116.300781 219.121094 116.449219 C 219 116.78125 218.984375 116.738281 217.976562 117.695312 C 217.597656 118.058594 217.347656 118.550781 216.742188 118.78125 C 217.464844 120.125 218.417969 121.308594 218.84375 122.777344 C 218.121094 123.355469 217.738281 122.347656 217.109375 122.402344 C 216.3125 122.472656 216.035156 121.769531 215.628906 121.277344 C 215.222656 120.785156 214.8125 120.289062 214.371094 119.757812 C 213.917969 120.460938 213.910156 120.707031 214.222656 121.894531 C 213.496094 122.144531 213.277344 121.203125 212.53125 121.242188 C 212.460938 122.789062 213.789062 123.902344 214.148438 125.824219 C 212.539062 124.488281 212.234375 122.671875 210.738281 121.9375 C 210.03125 122.683594 211.488281 123.261719 210.804688 124.121094 C 210.042969 123.851562 209.753906 122.78125 208.835938 122.738281 C 208.5625 123.355469 208.03125 123.71875 207.421875 124.128906 L 210.90625 129.339844 C 209.988281 129.46875 209.988281 129.472656 209.003906 128.144531 C 208.554688 127.539062 208.039062 126.988281 207.515625 126.371094 L 206.613281 127.46875 C 205.640625 127.488281 205.625 126.386719 204.953125 126.046875 C 204.03125 126.476562 204.246094 127.710938 203.441406 128.207031 C 203.152344 128.046875 202.855469 127.90625 202.546875 127.785156 C 202.242188 127.683594 201.824219 128.035156 201.925781 128.269531 C 202.195312 128.859375 202.5 129.429688 202.789062 130.007812 C 201.921875 130.800781 201.921875 130.800781 201.523438 132.105469 C 200.921875 131.59375 200.355469 131.078125 199.753906 130.613281 C 199.5625 130.496094 199.359375 130.480469 199.152344 130.566406 C 199 130.648438 198.902344 130.769531 198.859375 130.9375 C 198.816406 131.101562 198.839844 131.257812 198.929688 131.40625 C 199.226562 131.988281 199.558594 132.554688 199.886719 133.152344 C 199.382812 133.183594 199.996094 133.46875 199.621094 133.453125 C 198.796875 133.414062 198.746094 132.140625 197.8125 132.4375 C 197.742188 132.523438 197.597656 132.632812 197.613281 132.691406 C 197.921875 133.730469 198.070312 134.792969 198.054688 135.875 C 198.054688 136.265625 198.382812 136.679688 198.625 137.039062 C 199.421875 138.222656 200.253906 139.378906 201.042969 140.566406 C 201.226562 140.828125 201.285156 141.183594 200.863281 141.4375 C 199.972656 141.164062 199.777344 140.234375 199.273438 139.566406 C 198.746094 138.867188 198.203125 138.175781 197.644531 137.507812 C 197.117188 136.878906 196.785156 136.015625 195.679688 135.691406 C 195.597656 136.933594 196.308594 137.660156 196.765625 138.453125 C 197.191406 139.199219 197.746094 139.871094 198.300781 140.660156 L 196.820312 141.527344 C 195.632812 141.128906 195.359375 139.628906 194.128906 139.269531 C 193.984375 140.507812 193.984375 140.507812 197.75 146.375 C 197.496094 146.996094 197.164062 146.816406 196.835938 146.457031 C 196.417969 146 196.300781 145.265625 195.578125 145.09375 L 195.035156 145.96875 C 194.160156 145.820312 194.082031 144.914062 193.609375 144.398438 C 193.105469 143.847656 192.714844 143.191406 192.273438 142.574219 C 191.875 142.785156 191.457031 143.046875 191.714844 143.570312 C 192.183594 144.535156 192.71875 145.464844 193.199219 146.363281 C 193.054688 146.542969 192.988281 146.628906 192.917969 146.710938 L 191.007812 144.988281 C 190.695312 145.238281 190.511719 145.558594 190.679688 145.847656 C 191.007812 146.414062 191.605469 146.875 191.765625 147.476562 C 191.984375 148.257812 191.371094 147.910156 191 147.820312 C 190.953125 147.8125 190.863281 147.96875 190.695312 148.164062 C 192.90625 151.433594 195.777344 154.351562 197.273438 158.433594 C 196.128906 158.265625 195.972656 157.453125 195.578125 156.921875 C 195.121094 156.304688 194.710938 155.65625 194.28125 155.019531 C 193.917969 154.480469 193.554688 153.914062 193.175781 153.382812 C 192.71875 152.761719 192.230469 152.167969 191.777344 151.585938 C 190.699219 151.9375 192.019531 152.765625 191.246094 153.238281 C 190.066406 152.609375 189.714844 151.070312 188.457031 150.085938 C 188.378906 151.699219 189.542969 152.4375 189.871094 153.539062 C 188.871094 153.179688 188.871094 153.179688 187.582031 151.832031 C 187.128906 152.175781 187.21875 152.59375 187.492188 152.964844 C 188.71875 154.632812 189.964844 156.285156 191.140625 157.863281 C 190.960938 158.46875 190.609375 158.414062 190.394531 158.183594 C 189.804688 157.539062 189.257812 156.851562 188.71875 156.160156 C 188.183594 155.472656 187.765625 154.730469 186.925781 154.375 C 186.417969 154.863281 186.820312 155.4375 186.722656 155.953125 C 186.589844 156.613281 186.851562 157.171875 187.191406 157.707031 L 187.191406 159.039062 C 186.058594 159.074219 185.8125 157.984375 184.957031 157.566406 C 184.691406 158.597656 185.714844 159.09375 185.863281 159.941406 C 185.941406 160.601562 184.957031 160.480469 184.925781 161.085938 C 186.339844 163.277344 186.339844 163.277344 186.359375 164.59375 C 184.792969 163.296875 184.207031 161.203125 182.425781 160.136719 C 182.246094 161.199219 182.246094 161.199219 183.300781 163.453125 C 183.117188 164.175781 182.679688 163.613281 182.3125 163.6875 C 181.742188 164.335938 183.300781 164.976562 182.421875 165.675781 C 181.425781 165.402344 181.542969 163.933594 180.417969 163.792969 C 180.347656 163.90625 180.234375 164.023438 180.253906 164.085938 C 181.300781 166.730469 183.414062 168.75 184.632812 171.234375 C 184.480469 171.429688 184.351562 171.59375 184.347656 171.59375 C 182.199219 170.023438 181.425781 167.320312 179.460938 165.558594 C 178.882812 166.386719 178.882812 166.386719 179.875 168.992188 C 178.933594 169.375 178.875 167.953125 178.027344 168.113281 C 177.484375 168.542969 178.105469 168.804688 178.195312 169.144531 C 178.316406 169.589844 179.679688 170.519531 177.789062 170.230469 C 177.742188 170.230469 177.527344 170.621094 177.585938 170.726562 C 177.898438 171.292969 178.296875 171.816406 178.605469 172.386719 C 178.675781 172.511719 178.503906 172.765625 178.441406 172.957031 C 177.398438 172.789062 177.195312 171.199219 175.761719 171.414062 C 175.929688 172.613281 177.195312 173.09375 177.378906 174.167969 C 176.53125 174.125 176.53125 174.125 174.859375 172.804688 C 174.769531 172.855469 174.59375 172.917969 174.601562 172.953125 C 174.78125 174.148438 175.957031 174.878906 176.046875 176.238281 C 174.839844 176.566406 174.714844 175.070312 173.777344 174.929688 C 173.738281 174.980469 173.519531 175.125 173.53125 175.25 C 173.597656 175.953125 174.355469 176.5625 173.722656 177.394531 C 173.589844 177.578125 173.902344 178.195312 174.140625 178.519531 C 174.78125 179.394531 175.492188 180.214844 176.234375 181.132812 C 177.863281 180.636719 179.324219 179.910156 180.761719 179.136719 C 182.765625 178.050781 184.804688 177.757812 187.09375 178.144531 C 190.867188 178.769531 194.671875 179.453125 198.527344 179.183594 C 200.917969 179.015625 202.507812 180.039062 203.691406 181.988281 C 206.675781 186.886719 209.21875 191.96875 210.527344 197.597656 C 210.628906 198.023438 210.867188 198.417969 210.953125 198.84375 C 211.675781 202.484375 213.882812 205.183594 216.5625 207.550781 C 220.261719 210.828125 224.007812 214.058594 227.386719 217.671875 C 230.617188 221.109375 233.683594 224.707031 236.796875 228.257812 C 237.300781 228.84375 237.730469 229.480469 238.089844 230.160156 C 239.605469 232.960938 241.746094 235.367188 243.015625 238.234375 C 243.859375 238.203125 244.363281 237.765625 244.914062 237.417969 C 245.933594 236.773438 246.941406 236.105469 247.992188 235.519531 C 252.71875 232.890625 251.042969 233.507812 256.398438 233.226562 C 258.9375 233.0625 261.449219 233.230469 263.941406 233.738281 C 264.792969 233.917969 265.691406 233.90625 266.570312 233.976562 L 275.765625 234.699219 C 276.203125 234.734375 276.644531 234.761719 277.078125 234.824219 C 280.023438 235.234375 282.519531 236.453125 284.40625 238.824219 C 286.113281 240.972656 287.964844 243.015625 289.582031 245.226562 C 291.03125 247.1875 292.894531 248.089844 295.246094 247.910156 C 297.871094 247.703125 300.523438 247.5 303.078125 246.929688 C 306.519531 246.144531 310.003906 245.792969 313.535156 245.875 C 317.152344 245.964844 320.796875 245.652344 324.390625 246.394531 C 325.035156 246.523438 325.71875 246.550781 326.324219 246.785156 C 329.183594 247.910156 332.074219 248.980469 334.855469 250.28125 C 337.929688 251.726562 340.898438 253.410156 343.921875 254.980469 C 347.429688 256.789062 350.90625 258.660156 354.566406 260.195312 C 357.660156 261.472656 360.375 263.3125 362.710938 265.710938 C 364.480469 267.546875 366.511719 269.019531 368.652344 270.386719 C 370.40625 271.511719 372.097656 272.738281 373.839844 273.886719 C 374.511719 274.328125 375.015625 274.863281 375.242188 275.644531 C 374.945312 276.136719 374.535156 275.941406 374.132812 275.824219 C 372.414062 275.3125 370.976562 274.28125 369.5625 273.25 C 366.550781 271.054688 363.398438 269.042969 360.75 266.355469 C 359.167969 264.789062 357.359375 263.5625 355.320312 262.667969 C 350.410156 260.453125 345.644531 257.957031 340.933594 255.355469 C 340.546875 255.140625 340.140625 254.957031 339.703125 255.265625 C 339.472656 256.054688 340.761719 256.316406 340.304688 257.320312 L 338.269531 255.796875 L 337.597656 256.816406 C 335.59375 255.492188 334.375 253.289062 332.320312 252.019531 L 331.617188 252.757812 C 330.972656 252.511719 330.542969 251.554688 329.613281 252.214844 C 329.210938 252.503906 328.789062 252.214844 328.414062 251.972656 C 327.976562 251.679688 327.511719 251.410156 327.105469 251.152344 C 326.550781 251.515625 326.871094 252.015625 326.71875 252.394531 L 326.703125 252.410156 C 325.363281 252.203125 324.949219 250.878906 324.007812 250.183594 C 323.515625 249.824219 323.191406 249.140625 322.40625 249.351562 C 322.324219 249.433594 322.167969 249.550781 322.179688 249.570312 C 322.695312 250.441406 323.222656 251.308594 323.875 252.375 C 322.527344 252.277344 321.964844 250.882812 320.773438 251.109375 C 320.171875 250.421875 319.617188 249.679688 318.472656 249.0625 C 319.589844 250.652344 319.589844 250.652344 320.851562 251.015625 L 320.617188 252.179688 C 320.023438 252.410156 319.703125 252.066406 319.402344 251.796875 C 318.5 250.988281 317.640625 250.144531 316.746094 249.332031 C 316.472656 249.082031 316.074219 249.058594 315.882812 249.347656 C 315.757812 249.527344 315.914062 249.902344 315.945312 250.203125 C 315.882812 250.246094 315.746094 250.386719 315.699219 250.347656 C 315.035156 249.988281 314.398438 249.578125 313.71875 249.253906 C 313.410156 249.132812 313.09375 249.105469 312.769531 249.171875 C 312.320312 249.242188 312.460938 249.628906 312.441406 249.945312 C 312.382812 250.824219 311.457031 250.960938 310.867188 251.496094 L 312.910156 253.6875 C 312.730469 253.894531 312.589844 254.046875 312.582031 254.046875 C 311.132812 252.925781 309.6875 251.796875 308.261719 250.667969 C 306.554688 250.882812 304.882812 251.683594 303.179688 250.488281 C 303.507812 251.453125 304.164062 251.984375 304.664062 252.628906 C 305.121094 253.21875 305.960938 253.480469 306.113281 254.332031 C 304.949219 254.128906 304.949219 254.128906 303.839844 253.128906 C 303.117188 252.46875 302.394531 251.800781 301.652344 251.117188 C 300.902344 251.734375 302.089844 252.496094 301.328125 253.058594 C 300.675781 253.539062 302.050781 254.203125 301.203125 254.796875 C 300.015625 254.222656 299.296875 253.058594 298.277344 252.253906 C 297.636719 251.75 297.066406 251.933594 296.59375 252.519531 C 296.453125 252.910156 296.710938 253.152344 296.925781 253.359375 C 298.4375 254.804688 299.472656 256.671875 301.140625 257.980469 C 304.265625 260.410156 307.460938 262.734375 310.734375 264.953125 C 314.015625 267.164062 317.269531 269.414062 320.457031 271.761719 C 322.765625 273.460938 324.765625 275.539062 326.539062 277.78125 C 328.59375 280.375 330.914062 282.714844 333.183594 285.109375 C 334.003906 285.972656 334.832031 286.820312 335.292969 287.796875 C 335 288.359375 334.714844 288.269531 334.390625 288.207031 C 333.203125 287.976562 332.539062 287.050781 331.808594 286.253906 C 329.0625 283.253906 326.285156 280.277344 323.652344 277.179688 C 321.339844 274.46875 318.550781 272.332031 315.625 270.410156 C 311.035156 267.386719 306.578125 264.195312 302.109375 260.996094 C 301.210938 260.359375 300.378906 259.640625 299.621094 258.839844 C 295.863281 254.835938 291.851562 251.070312 288.605469 246.589844 C 287.363281 244.910156 286.039062 243.304688 284.625 241.765625 C 283.964844 241.042969 283.515625 239.691406 282.042969 240.363281 C 281.464844 239.863281 280.890625 239.359375 280.308594 238.871094 C 280.046875 238.648438 279.707031 238.488281 279.441406 238.785156 C 279.175781 239.085938 279.550781 239.328125 279.644531 239.601562 C 279.675781 239.730469 279.695312 239.859375 279.707031 239.992188 C 279.007812 240.355469 278.933594 239.554688 278.566406 239.347656 C 278.199219 239.121094 277.84375 238.878906 277.5 238.613281 C 277.167969 239.171875 276.890625 239.640625 276.558594 240.191406 C 277.386719 241.300781 278.238281 242.421875 279.050781 243.574219 C 279.128906 243.683594 279.027344 244.015625 278.902344 244.140625 C 278.71875 244.222656 278.542969 244.207031 278.378906 244.09375 C 277.078125 242.613281 275.824219 241.09375 274.511719 239.628906 C 273.832031 238.910156 273.121094 238.226562 272.371094 237.585938 C 272.238281 237.46875 271.976562 237.492188 271.613281 237.417969 C 271.738281 238.253906 272.425781 238.671875 272.742188 239.285156 C 273.085938 239.949219 273.765625 240.441406 273.792969 241.273438 C 273.445312 241.792969 273.25 241.320312 273.089844 241.136719 C 272.078125 239.980469 271.097656 238.789062 270.089844 237.636719 C 269.804688 237.308594 269.417969 237.035156 268.964844 237.382812 C 268.601562 237.660156 268.875 237.960938 269 238.238281 C 269.140625 238.546875 269.199219 238.839844 268.894531 239.113281 L 267.570312 238.171875 C 266.847656 239.257812 266.289062 239.4375 265.578125 238.777344 C 264.796875 238.035156 264.226562 237.015625 262.9375 236.855469 L 262.03125 238.46875 C 262.523438 239.703125 263.648438 240.324219 264.367188 241.273438 C 264.574219 241.546875 264.6875 241.839844 264.4375 242.136719 C 264.140625 242.484375 263.789062 242.316406 263.605469 242.070312 C 262.3125 240.273438 260.632812 238.847656 259.066406 237.3125 C 258.804688 237.09375 258.53125 236.890625 258.242188 236.703125 C 258.1875 238.285156 259.871094 238.792969 260.023438 240.085938 C 259.8125 240.433594 259.496094 240.460938 259.246094 240.214844 C 258.703125 239.671875 258.214844 239.070312 257.671875 238.53125 C 257.128906 237.988281 256.558594 238.109375 256.09375 238.890625 C 255.945312 239.136719 256.015625 239.507812 255.636719 239.632812 L 254.359375 238.832031 L 253.679688 239.679688 L 250.578125 236.789062 C 250.035156 237.214844 250.394531 237.554688 250.625 237.875 C 251.335938 238.804688 252.226562 239.609375 252.953125 241.140625 C 250.859375 240.136719 250.09375 238.277344 248.457031 237.472656 C 248.015625 237.703125 247.394531 237.8125 247.9375 238.570312 C 248.699219 239.640625 249.417969 240.742188 250.191406 241.875 C 250.09375 242.710938 250 243.5625 249.886719 244.535156 C 247.746094 243.707031 246.726562 241.476562 244.585938 240.679688 C 245.851562 242.789062 245.851562 242.789062 245.90625 244.117188 C 245.285156 244.394531 245 243.804688 244.429688 243.550781 C 243.996094 244.421875 245.070312 244.816406 245.054688 245.480469 C 244.871094 245.507812 244.589844 245.625 244.492188 245.542969 C 243.605469 244.78125 242.875 243.828125 241.738281 243.195312 C 242.023438 244.675781 242.050781 244.640625 243.433594 246.230469 C 244.109375 247.003906 245.164062 247.535156 245.425781 249.011719 C 243.832031 248.332031 243.054688 247.117188 241.984375 246.28125 C 241.910156 246.300781 241.757812 246.324219 241.757812 246.355469 C 241.738281 246.742188 241.746094 247.132812 241.746094 247.53125 C 240.746094 247.820312 240.867188 246.78125 240.429688 246.417969 C 239.921875 246.003906 239.5 245.488281 238.828125 245.335938 C 238.414062 245.496094 238.492188 245.765625 238.632812 246.074219 C 238.757812 246.351562 239.015625 246.640625 238.632812 246.996094 L 237.222656 246.191406 C 236.933594 246.660156 237.054688 246.929688 237.265625 247.203125 C 238.351562 248.582031 239.4375 249.964844 240.523438 251.351562 C 240.882812 251.820312 241.066406 252.292969 240.5 252.847656 C 238.96875 252.105469 238.691406 250.125 237.164062 249.375 C 236.71875 249.761719 237.191406 250.5 236.5 250.898438 C 235.355469 250.285156 234.804688 249.011719 233.867188 248.136719 C 233.589844 247.878906 233.273438 248.023438 233.039062 248.296875 C 233.054688 249.40625 234.523438 249.960938 234.183594 251.222656 C 231.992188 251.109375 232.011719 251.042969 230.253906 249.59375 C 229.890625 249.304688 229.492188 249.199219 229.097656 249.886719 C 230.222656 251.863281 232.355469 253.230469 233.300781 255.425781 C 232.984375 255.730469 232.660156 255.800781 232.394531 255.507812 C 231.589844 254.605469 230.820312 253.679688 230.03125 252.765625 C 229.621094 252.289062 229.304688 251.707031 228.652344 251.484375 C 228.410156 252.804688 229.703125 253.539062 229.867188 254.699219 C 229.628906 254.996094 229.347656 255.117188 229.0625 254.78125 C 228.355469 253.960938 227.691406 253.105469 226.710938 252.613281 C 225.984375 253.335938 227.539062 254.011719 226.664062 254.710938 C 225.503906 253.988281 224.941406 252.53125 223.519531 252.019531 C 222.949219 253.015625 224.191406 253.339844 224.128906 254.171875 C 223.070312 254.625 222.667969 252.84375 221.46875 253.429688 C 221.742188 254.246094 222.308594 254.863281 222.945312 255.402344 C 225.5625 257.625 227.601562 260.363281 229.785156 262.976562 C 230.199219 263.476562 230.617188 264.039062 229.949219 264.785156 C 227.269531 262.511719 225.726562 259.152344 222.75 257.171875 C 221.789062 257.875 223.585938 258.4375 222.554688 259.253906 C 221.625 259.152344 221.503906 257.910156 220.769531 257.398438 C 219.984375 256.847656 219.191406 256.3125 218.140625 255.589844 C 218.320312 256.960938 219.347656 257.433594 219.640625 258.367188 C 219.460938 259.183594 218.167969 259.09375 218.121094 260.300781 L 214.882812 257.429688 C 214.371094 257.9375 214.917969 258.195312 215.164062 258.46875 C 216.464844 259.917969 217.953125 261.21875 219.042969 262.800781 C 218.957031 262.933594 218.863281 263.0625 218.757812 263.183594 C 216.5 262.039062 215.308594 259.570312 213.019531 258.503906 C 212.445312 258.820312 212.554688 259.226562 212.839844 259.585938 C 213.53125 260.4375 214.261719 261.257812 214.96875 262.101562 C 215.238281 262.417969 215.632812 262.683594 215.472656 263.210938 C 214.847656 263.535156 214.582031 262.847656 214.117188 262.722656 L 213.347656 263.40625 L 210.179688 260.710938 C 209.820312 261.050781 209.820312 261.347656 210.070312 261.636719 C 210.570312 262.214844 211.085938 262.78125 211.601562 263.363281 C 211.21875 264.289062 211.542969 265.589844 210.074219 265.867188 C 210.097656 267.148438 211.417969 267.785156 211.636719 268.988281 C 211.183594 269.570312 210.953125 268.929688 210.710938 268.757812 C 209.824219 268.125 209.59375 266.839844 208.441406 266.441406 C 207.800781 266.84375 208.363281 267.148438 208.5625 267.402344 C 208.894531 267.820312 209.238281 268.195312 208.972656 268.96875 C 207.464844 267.910156 206.496094 266.570312 205.300781 265.476562 C 204.847656 265.058594 204.546875 265.332031 204.257812 265.777344 C 204.289062 266.613281 205.058594 266.960938 205.523438 267.515625 C 205.988281 268.070312 206.488281 268.636719 207.070312 269.308594 C 205.804688 269.171875 205.804688 269.171875 203.066406 267.082031 C 202.996094 267.90625 203.671875 268.160156 204.003906 268.613281 C 204.304688 269.019531 204.734375 269.367188 204.710938 270.003906 C 203.316406 270.167969 202.902344 268.484375 201.523438 268.410156 C 201.007812 269.441406 202.199219 269.832031 202.410156 270.597656 C 201.527344 271.164062 201.074219 270.238281 200.40625 270.015625 C 199.660156 270.445312 200.644531 270.882812 200.28125 271.398438 C 199.75 271.757812 199.207031 270.855469 198.5625 271.152344 C 196.910156 272.902344 195.261719 274.65625 193.59375 276.394531 C 193.460938 276.53125 193.199219 276.550781 193.003906 276.625 C 192.675781 276.484375 192.460938 276.207031 192.539062 275.886719 C 192.628906 275.4375 192.804688 275.027344 193.074219 274.65625 C 194.90625 272.328125 196.707031 269.984375 198.914062 267.96875 C 200.9375 266.117188 202.882812 264.183594 204.753906 262.160156 C 207.609375 259.0625 210.875 256.488281 214.5625 254.441406 C 218.40625 252.308594 222.230469 250.152344 226.25 248.34375 C 230.464844 246.457031 234.558594 244.339844 238.53125 241.992188 C 239.867188 241.199219 240.976562 240.183594 242.113281 239 C 240.726562 237.554688 239.761719 235.957031 238.796875 234.375 C 235.800781 229.472656 231.976562 225.226562 228.117188 221.019531 C 223.957031 216.480469 219.445312 212.292969 214.839844 208.207031 C 213.507812 207.023438 212.425781 205.660156 211.378906 204.246094 C 210.644531 203.265625 210.144531 202.175781 209.878906 200.980469 C 209.09375 197.546875 207.902344 194.246094 206.621094 190.980469 C 205.5 188.078125 204.042969 185.355469 202.25 182.8125 C 201.496094 182.351562 201.105469 183.285156 200.546875 182.835938 C 200.132812 182.503906 199.691406 182.199219 199.214844 181.851562 C 198.550781 183.066406 200.046875 183.628906 199.769531 184.601562 C 199.644531 184.851562 199.5 184.8125 199.242188 184.667969 C 198.15625 184.050781 197.433594 183.082031 196.640625 182.171875 C 196.535156 182.03125 196.394531 181.949219 196.222656 181.929688 C 196.046875 181.910156 195.894531 181.957031 195.761719 182.070312 C 195.695312 183.15625 196.996094 183.710938 196.929688 184.894531 C 195.941406 184.867188 195.800781 183.945312 195.285156 183.476562 C 194.804688 183.042969 194.445312 182.472656 193.65625 182.554688 C 192.761719 182.640625 192.460938 181.648438 191.726562 181.414062 C 191.183594 181.726562 190.40625 181.570312 190.035156 182.398438 C 190.863281 183.714844 191.730469 185.085938 192.582031 186.46875 C 192.609375 186.515625 192.5 186.648438 192.371094 186.898438 C 191.453125 186.457031 191.09375 185.515625 190.535156 184.808594 C 189.851562 183.941406 189.246094 183 188.066406 182.761719 C 186.773438 182.503906 186.234375 181.28125 185.472656 180.589844 C 184.640625 180.761719 184.535156 181.90625 183.628906 181.453125 C 183.363281 181.980469 183.265625 182.753906 182.371094 182.152344 C 182.152344 183.328125 183.660156 183.761719 183.277344 184.878906 C 182.453125 185.101562 182.371094 184.101562 181.773438 184.007812 C 181.316406 184.203125 181.644531 185.320312 180.808594 184.925781 C 180.101562 184.59375 180.191406 185.390625 179.777344 185.417969 C 178.699219 185.027344 178.300781 183.714844 177.160156 183.171875 C 176.667969 184.28125 177.523438 184.738281 177.832031 185.351562 C 178.183594 186.035156 178.671875 186.640625 179.0625 187.304688 C 179.421875 187.9375 180.136719 188.425781 179.976562 189.449219 C 178.476562 189.125 178.5625 187.414062 177.53125 186.753906 C 176.53125 186.121094 176.261719 184.765625 175.011719 184.070312 C 174.570312 185.921875 176.4375 186.570312 176.6875 187.980469 C 174.902344 188.292969 174.367188 186.476562 173.226562 185.734375 C 172.636719 186.683594 173.296875 187.101562 173.652344 187.597656 C 173.980469 188.050781 174.285156 188.488281 174.078125 189.101562 C 173.378906 189.554688 173.097656 188.40625 172.449219 188.660156 C 172.335938 188.710938 172.269531 188.796875 172.246094 188.917969 C 172.222656 189.039062 172.25 189.148438 172.335938 189.238281 C 173.613281 191.15625 174.894531 193.074219 176.175781 194.988281 C 176.71875 195.804688 177.390625 196.5625 177.484375 197.601562 C 177.484375 197.824219 177.394531 198.003906 177.21875 198.140625 C 177.023438 198.214844 176.839844 198.1875 176.675781 198.058594 C 175.648438 196.523438 174.667969 194.957031 173.640625 193.421875 C 173.15625 192.699219 172.59375 192.023438 172.070312 191.324219 C 169.832031 191.664062 169.632812 189.167969 168.128906 188.492188 C 167.78125 188.660156 167.714844 188.894531 167.917969 189.21875 C 168.4375 190.054688 168.945312 190.898438 169.417969 191.675781 C 169.214844 192.523438 168.757812 191.910156 168.445312 191.988281 C 168.132812 192.0625 167.855469 192.167969 167.597656 192.257812 C 165.277344 189.882812 165.277344 189.882812 164.355469 190.132812 C 164.460938 191.316406 165.746094 191.804688 165.984375 192.917969 C 165.941406 193.628906 165.292969 193.011719 165.089844 193.292969 C 164.933594 193.566406 164.804688 193.855469 164.707031 194.152344 C 164.066406 194.273438 163.847656 193.621094 163.359375 193.429688 C 163.273438 193.5625 163.085938 193.726562 163.113281 193.835938 C 163.261719 194.40625 163.953125 194.910156 163.238281 195.679688 C 162.152344 194.433594 161.5 192.882812 160.320312 191.824219 C 159.191406 192.4375 160.988281 193.78125 159.382812 194.140625 C 158.238281 194.503906 157.382812 193.324219 156.046875 193.058594 C 156.699219 195.316406 158.378906 196.671875 159.289062 198.457031 C 158.960938 199.039062 158.5625 198.855469 158.296875 198.503906 C 157.242188 197.101562 156.234375 195.664062 155.183594 194.261719 C 154.929688 193.921875 154.585938 193.574219 154.085938 193.964844 C 153.90625 194.742188 155.039062 195.089844 154.746094 195.917969 C 154.503906 196.089844 154.503906 196.089844 152.542969 194.40625 C 151.707031 194.757812 150.914062 195.535156 150.019531 194.40625 C 149.710938 195.613281 150.765625 195.929688 150.765625 196.695312 C 150.585938 196.761719 150.320312 196.941406 150.210938 196.875 C 149.746094 196.59375 149.367188 196.132812 148.878906 195.949219 C 148.554688 195.824219 148.082031 196.164062 147.703125 196.105469 C 146.933594 195.988281 146.851562 194.878906 145.992188 194.824219 C 145.335938 195.207031 146.476562 195.777344 145.847656 196.167969 C 145.121094 196.152344 145.042969 195.113281 144.269531 195.183594 C 143.703125 195.707031 144.914062 196.347656 144.15625 196.855469 C 142.9375 196.5625 142.683594 195.03125 141.441406 194.6875 C 141.542969 196.445312 141.542969 196.445312 145.605469 201.835938 C 145.289062 202.300781 144.835938 202.320312 144.53125 201.945312 C 143.84375 201.097656 143.246094 200.183594 142.570312 199.246094 L 140.960938 199.648438 L 139.5625 197.683594 C 139.007812 198.578125 139.703125 198.863281 139.914062 199.300781 C 140.097656 199.679688 140.457031 200 140.226562 200.5 C 139.589844 200.664062 139.484375 199.878906 138.871094 199.777344 C 138.28125 200.136719 138.179688 200.882812 137.816406 201.457031 C 138.125 202.9375 139.464844 203.75 140.105469 205.011719 C 140.160156 205.117188 139.996094 205.371094 139.886719 205.515625 C 139.789062 205.578125 139.683594 205.582031 139.578125 205.53125 C 139.195312 205.152344 138.828125 204.761719 138.472656 204.355469 C 137.746094 203.542969 137.335938 202.460938 136.316406 201.875 C 135.324219 202.960938 136.875 204.015625 136.339844 205.078125 C 135.90625 205.398438 135.546875 204.929688 135.136719 204.96875 C 135.230469 203.984375 134.59375 203.371094 133.992188 202.746094 C 133.773438 202.519531 133.515625 202.355469 133.316406 202.839844 C 133.808594 203.640625 134.316406 204.449219 135.253906 204.867188 Z M 175.46875 181.535156 C 174.019531 180.109375 173.390625 178.371094 171.78125 177.484375 C 171.179688 178.207031 171.601562 178.734375 171.988281 179.289062 C 172.328125 179.78125 173.058594 180.140625 172.5625 181.03125 C 171.539062 180.953125 171.457031 179.511719 170.433594 179.472656 C 170.050781 179.945312 170.550781 180.269531 170.617188 180.660156 C 170.679688 181.054688 170.417969 181.203125 170.027344 181.089844 C 169.742188 181.007812 169.453125 180.941406 169.179688 180.875 C 169 181.226562 168.898438 181.570312 168.679688 181.789062 C 168.277344 182.1875 168.0625 182.667969 168.035156 183.234375 C 168.023438 183.339844 167.972656 183.425781 167.886719 183.488281 C 167.625 183.617188 167.164062 183.257812 167.058594 183.703125 C 166.859375 184.535156 166.050781 184.4375 165.558594 184.804688 C 165.460938 184.863281 165.386719 184.941406 165.335938 185.042969 C 165.285156 185.222656 165.203125 185.484375 165.285156 185.585938 C 165.398438 185.726562 165.703125 185.867188 165.84375 185.8125 C 168.082031 184.921875 170.324219 184.027344 172.539062 183.074219 C 173.425781 182.695312 174.265625 182.167969 175.46875 181.535156 Z M 86.597656 231.539062 C 86.804688 232.730469 86.796875 232.738281 87.710938 233.542969 C 87.882812 233.695312 88.039062 233.625 88.226562 233.203125 C 87.609375 232.785156 87.546875 231.792969 86.597656 231.539062 Z M 86.597656 231.539062 " fill-opacity="1" fill-rule="nonzero"/></g><path fill="#5271ff" d="M 154.984375 237.875 C 153.820312 237.816406 153.703125 236.417969 152.644531 236.164062 L 152.0625 237.105469 C 151.105469 236.957031 150.8125 235.96875 150.027344 235.539062 C 149.570312 236.605469 151.066406 237.097656 150.804688 238.203125 C 150.019531 238.285156 149.8125 237.121094 149.019531 237.28125 C 148.449219 237.597656 148.785156 238.003906 148.910156 238.367188 C 149.039062 238.726562 148.929688 239.164062 148.664062 239.195312 C 147.335938 239.347656 148.304688 240.085938 148.265625 240.5625 C 148.265625 240.660156 148.234375 240.757812 148.222656 240.855469 C 147.84375 241.355469 147.101562 240.792969 146.734375 241.398438 C 146.675781 242.5625 148.125 242.957031 148.261719 244.007812 C 148.164062 244.101562 148.058594 244.183594 147.941406 244.253906 C 147.34375 243.785156 146.753906 243.296875 146.152344 242.808594 C 145.535156 243.050781 145.765625 243.441406 146.039062 243.75 C 146.761719 244.574219 147.550781 245.339844 148.261719 246.175781 C 148.480469 246.429688 148.328125 246.761719 148.011719 246.953125 C 146.941406 246.464844 146.574219 245.074219 145.316406 244.820312 C 144.671875 245.492188 145.945312 245.945312 145.453125 246.625 C 144.566406 246.550781 144.308594 245.429688 143.433594 245.316406 C 143.433594 246.363281 143.433594 246.363281 144.796875 248.027344 C 143.800781 248.632812 143.449219 247.15625 142.570312 247.367188 C 142.113281 248.320312 143.335938 248.71875 143.449219 249.382812 C 142.855469 250.050781 142.402344 249 141.914062 249.511719 C 141.996094 250.832031 143.738281 251.316406 143.640625 252.765625 C 142.808594 253.03125 142.644531 252.070312 142.027344 252.023438 L 141.539062 253.359375 C 139.972656 252.613281 139.738281 250.550781 138.03125 250.023438 C 137.128906 251.46875 138.988281 252.042969 139.039062 253.160156 C 138 252.921875 138 252.921875 136.25 251.472656 C 135.363281 252.175781 136.777344 252.738281 136.363281 253.414062 C 136.242188 253.667969 136.070312 253.683594 135.839844 253.484375 C 135.34375 253.058594 134.839844 252.640625 134.34375 252.21875 C 133.484375 252.320312 134.023438 253.085938 133.5625 253.582031 C 133.003906 253.933594 132.441406 252.585938 131.699219 253.273438 C 131.476562 253.882812 132.195312 254.140625 132.230469 254.71875 C 130.964844 254.539062 130.105469 255.15625 129.40625 256.164062 L 131.195312 258.417969 C 130.980469 258.894531 130.75 258.898438 130.472656 258.644531 C 129.601562 257.867188 128.816406 256.976562 127.625 256.335938 C 127.511719 257.582031 128.789062 257.75 128.804688 258.757812 C 128.691406 258.957031 128.371094 258.996094 128.113281 258.777344 C 127.445312 258.214844 126.816406 257.605469 126.230469 257.070312 C 125.589844 257.058594 125.417969 257.355469 125.292969 257.839844 C 125.144531 258.421875 124.65625 258.144531 124.277344 258.078125 C 123.699219 259.140625 125.273438 259.414062 125.140625 260.28125 C 124.867188 260.582031 124.867188 260.582031 122.277344 258.65625 C 121.886719 258.941406 121.683594 259.332031 122.011719 259.738281 C 122.902344 260.847656 123.84375 261.921875 124.761719 263.007812 C 124.972656 263.261719 125.144531 263.527344 124.824219 264.027344 C 123.265625 263.242188 122.378906 261.679688 121.023438 260.660156 C 120.515625 260.941406 120.691406 261.328125 120.863281 261.714844 C 121.40625 262.925781 122.289062 263.882812 123.164062 264.703125 C 123.03125 265.246094 122.875 265.441406 122.476562 265.230469 C 122.074219 265.015625 121.6875 264.839844 121.230469 265 C 121.300781 263.75 120.324219 263.25 119.351562 262.125 C 119.9375 263.824219 119.9375 263.824219 121.308594 264.925781 C 121.144531 265.398438 120.792969 265.742188 120.347656 265.453125 C 119.625 264.980469 119.003906 264.371094 118.34375 263.808594 C 117.960938 264.09375 118.09375 264.40625 118.296875 264.65625 C 119.410156 266.015625 120.542969 267.355469 121.660156 268.710938 C 121.921875 269.03125 122.140625 269.386719 122.371094 269.710938 C 121.828125 270.242188 121.410156 269.933594 121.125 269.652344 C 120.339844 268.890625 119.621094 268.058594 118.882812 267.246094 C 118.316406 266.621094 117.820312 265.90625 116.890625 265.675781 C 116.890625 266.804688 116.890625 266.804688 118.882812 269.140625 C 118.644531 269.714844 118.269531 269.601562 117.929688 269.285156 C 117.367188 268.769531 116.851562 268.203125 116.300781 267.671875 C 116.128906 267.535156 115.941406 267.414062 115.746094 267.3125 C 115.230469 267.648438 115.410156 268.0625 115.722656 268.355469 C 116.210938 268.765625 116.722656 269.152344 117.25 269.511719 C 116.386719 270.777344 115.707031 269.304688 114.910156 269.972656 C 115.835938 271.011719 116.773438 272.035156 117.675781 273.09375 C 118.035156 273.527344 118.21875 274.027344 117.644531 274.503906 C 116.230469 273.75 115.765625 272.074219 114.457031 271.230469 C 114.359375 272.042969 114.359375 272.042969 114.976562 273.015625 C 115.078125 273.652344 114.359375 273.457031 114.179688 273.8125 C 114.039062 274.09375 113.882812 274.367188 113.679688 274.730469 L 111.246094 272.890625 C 111.507812 273.992188 111.507812 273.992188 112.402344 275.144531 C 111.238281 275.4375 110.773438 274.058594 109.773438 274.242188 C 109.410156 274.835938 109.386719 274.84375 109.832031 275.8125 C 109.648438 275.894531 109.457031 276.078125 109.3125 276.042969 C 108.894531 275.921875 108.488281 275.773438 108.089844 275.597656 C 107.378906 276.355469 106.75 277.113281 106.027344 277.765625 C 105.484375 278.246094 104.84375 278.335938 104.328125 277.636719 C 104.339844 277.425781 104.273438 277.148438 104.382812 277.015625 C 109.28125 270.953125 114.191406 264.898438 119.109375 258.851562 C 121.933594 255.367188 125.335938 252.707031 129.621094 251.210938 C 131.375 250.59375 133.035156 249.71875 134.765625 249.019531 C 137.71875 247.824219 139.960938 245.707031 141.894531 243.304688 C 145.085938 239.355469 147.519531 234.917969 149.4375 230.21875 C 150.804688 226.871094 152.003906 223.453125 153.261719 220.058594 C 153.453125 219.546875 153.5625 219.007812 153.714844 218.484375 C 154.691406 215.113281 156.734375 212.417969 159.1875 210.003906 C 159.765625 209.484375 160.433594 209.121094 161.1875 208.921875 C 164.085938 208.0625 166.570312 206.472656 169.019531 204.792969 C 169.28125 204.589844 169.566406 204.429688 169.875 204.308594 C 170.039062 204.253906 170.292969 204.359375 170.46875 204.457031 C 170.796875 204.636719 170.828125 204.980469 170.726562 205.308594 C 170.640625 205.511719 170.53125 205.699219 170.398438 205.871094 C 169.886719 206.636719 168.722656 206.96875 168.992188 208.269531 C 169.148438 209.03125 168.117188 209.664062 168.515625 210.582031 L 167.183594 209.761719 C 166.757812 210.910156 168.21875 211.542969 168.140625 212.707031 C 166.671875 212.371094 166.558594 210.8125 165.449219 210.355469 C 164.5625 210.828125 166.0625 211.515625 165.179688 212.050781 L 163.429688 210.964844 C 163.175781 211.972656 164.636719 212.367188 163.972656 213.332031 C 163.019531 213.222656 162.820312 212.085938 161.964844 211.851562 C 161.808594 211.902344 161.695312 212.003906 161.625 212.152344 C 161.550781 212.304688 161.546875 212.453125 161.601562 212.609375 C 161.945312 213.40625 162.371094 214.167969 162.757812 214.933594 C 162.644531 215.238281 162.507812 215.277344 162.285156 215.140625 C 161.550781 214.691406 161.121094 213.824219 160.042969 213.542969 C 160.011719 214.757812 161.628906 215.101562 161.375 216.375 C 160.273438 216.574219 160.207031 214.964844 159.195312 215.054688 C 158.78125 215.558594 159.25 215.867188 159.503906 216.152344 C 160.589844 217.390625 161.726562 218.582031 162.804688 219.824219 C 163.03125 220.082031 162.863281 220.414062 162.441406 220.648438 L 158.128906 216.265625 C 157.6875 216.625 157.757812 216.945312 157.964844 217.203125 C 158.589844 217.96875 159.246094 218.707031 159.878906 219.46875 C 160.078125 219.710938 160.269531 219.984375 160.082031 220.355469 C 160.035156 220.40625 159.933594 220.5625 159.902344 220.546875 C 158.519531 220.003906 158.050781 218.378906 156.53125 217.773438 C 155.988281 219.402344 157.636719 219.980469 158.042969 221.140625 L 157.320312 221.734375 C 157.273438 222.878906 158.800781 223.226562 158.757812 224.5 C 157.3125 224.691406 157.011719 222.980469 155.863281 222.835938 C 155.113281 224.171875 157.246094 224.535156 156.675781 225.824219 L 155.199219 224.820312 C 154.75 225.84375 155.71875 226.25 155.921875 226.960938 L 154.957031 227.839844 C 155.847656 229.285156 156.746094 230.75 157.636719 232.199219 C 156.597656 232.996094 156.515625 231.953125 156.089844 231.621094 C 155.527344 231.582031 155.6875 232.269531 155.183594 232.445312 L 152.71875 229.972656 C 151.816406 230.863281 152.890625 231.417969 152.902344 232.1875 L 151.941406 232.984375 C 152.824219 234.226562 153.703125 235.480469 154.597656 236.722656 C 154.863281 237.082031 155.070312 237.445312 154.957031 237.921875 Z M 154.984375 237.875 " fill-opacity="1" fill-rule="nonzero"/><path fill="#5271ff" d="M 250.710938 264.136719 C 249.675781 264.152344 249.445312 263.023438 248.558594 263.21875 C 248.523438 264.179688 249.792969 264.359375 249.75 265.300781 C 249.554688 265.351562 249.292969 265.503906 249.175781 265.429688 C 248.296875 264.855469 247.605469 263.984375 246.390625 263.503906 C 246.414062 264.929688 247.964844 265.195312 247.960938 266.355469 C 247.375 266.808594 246.984375 266.230469 246.5625 266.03125 C 246.070312 265.796875 245.636719 265.445312 245.132812 265.117188 C 245 265.445312 244.941406 265.78125 244.753906 266.007812 C 244.375 266.472656 243.429688 266.273438 243.375 267.152344 C 242.195312 267.695312 241.023438 268.253906 239.832031 268.765625 C 239.703125 268.820312 239.402344 268.664062 239.289062 268.523438 C 239.175781 268.378906 239.109375 268.050781 239.1875 267.953125 C 240.34375 266.640625 241.519531 265.347656 242.714844 264.066406 C 245.578125 261.019531 248.359375 257.910156 250.675781 254.421875 C 252.066406 252.335938 253.871094 250.847656 256.234375 250 C 257.367188 249.589844 258.441406 249.019531 259.582031 248.628906 C 260.613281 248.257812 261.671875 247.984375 262.757812 247.8125 C 265.039062 247.496094 267.3125 247.152344 269.515625 246.457031 C 269.699219 246.386719 269.878906 246.386719 270.0625 246.453125 C 270.242188 246.519531 270.378906 246.640625 270.472656 246.808594 C 270.636719 247.726562 269.566406 248.074219 269.25 248.828125 C 269.324219 249.730469 270.578125 250.441406 269.679688 251.5 C 268.636719 251.140625 268.542969 249.875 267.617188 249.425781 C 267.4375 249.34375 267.175781 249.28125 267.03125 249.355469 C 266.871094 249.496094 266.800781 249.671875 266.816406 249.882812 C 266.878906 250.382812 267.488281 250.792969 267.050781 251.390625 C 265.945312 251.339844 265.808594 249.5625 264.316406 249.976562 C 265.519531 252.300781 268.367188 253.230469 269.113281 255.8125 C 269.128906 255.867188 268.980469 255.972656 268.886719 256.074219 C 267.515625 254.832031 266.296875 253.394531 264.699219 252.480469 C 263.660156 252.917969 265.0625 253.679688 264.367188 254.117188 C 263.9375 254.195312 264.476562 254.429688 264.125 254.160156 C 262.824219 253.160156 262.054688 251.589844 260.566406 250.773438 C 259.960938 251.089844 260.320312 251.429688 260.527344 251.761719 C 260.925781 252.40625 261.730469 252.753906 261.886719 253.570312 C 261.914062 253.71875 261.707031 253.914062 261.617188 254.089844 C 260.558594 253.59375 260.171875 252.226562 258.851562 251.988281 C 258.679688 252.921875 259.523438 253.269531 259.921875 253.847656 C 260.285156 254.367188 260.703125 254.839844 261.386719 255.695312 C 259.148438 255.027344 258.417969 252.984375 256.574219 252.359375 C 256.070312 253.570312 257.589844 253.910156 257.480469 254.835938 C 256.707031 255.074219 256.445312 254.128906 255.617188 254.097656 C 255.511719 255 255.410156 255.917969 255.308594 256.808594 C 254.296875 257.023438 254.097656 255.875 253.316406 255.820312 C 253.039062 255.949219 253.003906 256.105469 253.171875 256.3125 C 253.582031 256.824219 253.984375 257.34375 254.367188 257.828125 C 254.398438 258.515625 253.371094 258.296875 253.472656 258.96875 C 253.539062 259.386719 253.847656 259.871094 253.71875 260.195312 C 253.457031 260.835938 253.785156 261.984375 252.449219 261.710938 C 252.8125 263.039062 254.203125 263.453125 254.425781 264.71875 C 253.449219 264.8125 253.050781 264.058594 252.492188 263.613281 C 251.890625 263.132812 251.320312 262.617188 250.78125 262.070312 C 250.261719 261.546875 249.878906 260.871094 249.09375 260.671875 C 249.023438 260.769531 248.894531 260.855469 248.902344 260.9375 C 248.953125 262.226562 250.566406 262.601562 250.691406 264.136719 Z M 250.710938 264.136719 " fill-opacity="1" fill-rule="nonzero"/><path fill="#5271ff" d="M 286.050781 146.289062 C 286.859375 146.566406 287.175781 147.316406 287.550781 147.964844 C 292.074219 155.746094 297.375 163.035156 302.058594 170.710938 C 304.90625 175.375 308.960938 178.574219 313.640625 181.15625 C 315.175781 182 316.644531 182.964844 318.121094 183.917969 C 319.996094 185.140625 321.480469 186.726562 322.574219 188.679688 C 323.972656 191.082031 324.890625 193.652344 325.324219 196.398438 C 326.011719 200.730469 327.007812 204.992188 328.316406 209.183594 C 329.582031 213.289062 331.65625 217.0625 334.050781 220.613281 C 335.582031 222.878906 337.398438 224.949219 339.117188 227.089844 C 340.910156 229.320312 342.375 231.773438 343.738281 234.261719 C 345.367188 237.234375 346.738281 240.359375 348.222656 243.414062 C 347.53125 243.886719 347.304688 243.882812 347.027344 243.363281 C 345.71875 240.953125 344.375 238.5625 343.132812 236.121094 C 341.730469 233.378906 340.0625 230.804688 338.136719 228.402344 C 335.199219 224.71875 332.382812 220.9375 330.074219 216.800781 C 327.800781 212.726562 326.492188 208.332031 325.484375 203.828125 C 324.761719 200.625 324.179688 197.394531 323.53125 194.175781 C 322.804688 190.578125 320.921875 187.730469 317.996094 185.511719 C 316.0625 184.039062 313.898438 182.96875 311.84375 181.714844 C 310.066406 180.628906 308.320312 179.53125 306.691406 178.199219 C 304.996094 176.78125 303.539062 175.144531 302.328125 173.296875 C 299.445312 169.027344 296.585938 164.738281 293.824219 160.382812 C 291.183594 156.214844 288.683594 151.957031 286.117188 147.742188 C 285.847656 147.265625 285.539062 146.800781 286.0625 146.289062 Z M 286.050781 146.289062 " fill-opacity="1" fill-rule="nonzero"/><path fill="#5271ff" d="M 199.023438 168.980469 C 198.46875 168.722656 198.414062 168.300781 198.601562 167.90625 C 199.066406 166.914062 199.582031 165.949219 200.144531 165.011719 C 200.855469 163.882812 201.273438 162.644531 201.691406 161.398438 C 203.339844 156.53125 204.992188 151.664062 207.085938 146.964844 C 207.703125 145.578125 208.085938 144.074219 209.074219 142.855469 C 209.628906 142.171875 210.144531 141.492188 210.882812 140.972656 C 214.089844 138.6875 217.277344 136.375 220.476562 134.078125 C 220.664062 133.980469 220.863281 133.90625 221.070312 133.859375 C 221.515625 134.09375 221.25 134.390625 221.121094 134.644531 C 220.546875 135.730469 219.777344 136.648438 218.8125 137.402344 C 217.285156 138.628906 215.773438 139.933594 214.078125 140.890625 C 211.019531 142.605469 209.078125 145.183594 208.074219 148.390625 C 207.285156 150.910156 206.171875 153.28125 205.21875 155.722656 C 203.710938 159.582031 202.289062 163.492188 200.28125 167.144531 C 199.921875 167.800781 199.691406 168.5625 199.023438 168.980469 Z M 199.023438 168.980469 " fill-opacity="1" fill-rule="nonzero"/><path fill="#5271ff" d="M 347.398438 236.898438 C 347.171875 236.660156 346.867188 236.464844 346.734375 236.175781 C 344.433594 231.421875 341.34375 227.140625 338.695312 222.582031 C 336.324219 218.507812 333.894531 214.46875 331.550781 210.378906 C 331.089844 209.570312 330.445312 208.78125 330.445312 207.757812 C 330.707031 207.691406 330.96875 207.542969 331.070312 207.617188 C 331.34375 207.808594 331.5625 208.050781 331.730469 208.339844 C 333.933594 212.382812 336.765625 216.035156 338.785156 220.214844 C 340.109375 222.960938 342.042969 225.414062 343.6875 228.003906 C 345.398438 230.691406 346.640625 233.605469 347.632812 236.621094 C 347.632812 236.679688 347.488281 236.789062 347.398438 236.898438 Z M 347.398438 236.898438 " fill-opacity="1" fill-rule="nonzero"/><path fill="#5271ff" d="M 219.734375 217.40625 C 220.042969 216.980469 220.335938 216.792969 220.65625 216.945312 C 221.054688 217.125 221.410156 217.371094 221.71875 217.683594 C 224.269531 220.535156 226.867188 223.339844 229.007812 226.542969 C 230.636719 228.996094 232.550781 231.269531 234.335938 233.625 C 234.730469 234.152344 235.230469 234.636719 235.476562 235.222656 C 235.820312 236.03125 237.082031 236.550781 236.335938 237.726562 C 235.195312 237.6875 235.132812 236.621094 234.632812 235.964844 C 233.238281 234.136719 231.796875 232.347656 230.414062 230.507812 C 229.035156 228.664062 227.679688 226.820312 226.367188 224.941406 C 225.101562 223.132812 223.511719 221.628906 222.035156 220.023438 C 221.230469 219.15625 220.332031 218.371094 219.734375 217.40625 Z M 219.734375 217.40625 " fill-opacity="1" fill-rule="nonzero"/><path fill="#5271ff" d="M 295.40625 135.949219 C 294.414062 134.773438 293.417969 133.683594 292.691406 132.367188 C 291.789062 130.742188 290.894531 129.097656 289.863281 127.550781 C 287.558594 124.089844 285.160156 120.679688 282.808594 117.246094 C 282.421875 116.714844 282.078125 116.160156 281.777344 115.578125 C 281.644531 115.304688 281.796875 114.964844 282.109375 114.78125 C 284.503906 116.535156 291.757812 127.820312 294.957031 133.703125 C 295.320312 134.347656 295.84375 135 295.410156 135.949219 Z M 295.40625 135.949219 " fill-opacity="1" fill-rule="nonzero"/><path fill="#5271ff" d="M 274.488281 212.089844 C 274.882812 211.464844 275.289062 211.441406 275.621094 211.835938 C 276.394531 212.761719 277.15625 213.699219 277.847656 214.679688 C 280.816406 218.902344 283.703125 223.175781 286.085938 227.773438 C 286.484375 228.554688 286.832031 229.363281 287.117188 230.199219 C 287.191406 230.410156 286.933594 230.738281 286.738281 231.296875 C 282.957031 224.460938 278.722656 218.230469 274.488281 212.089844 Z M 274.488281 212.089844 " fill-opacity="1" fill-rule="nonzero"/><path fill="#5271ff" d="M 297.234375 172.488281 C 295.984375 170.648438 294.664062 168.902344 293.554688 167.03125 C 291.875 164.203125 290.195312 161.378906 288.242188 158.726562 C 288.101562 158.558594 288.011719 158.363281 287.980469 158.144531 C 287.972656 157.925781 288.054688 157.746094 288.222656 157.601562 C 288.421875 157.515625 288.609375 157.53125 288.792969 157.652344 C 290.496094 159.652344 292.183594 161.671875 293.445312 163.996094 C 294.707031 166.316406 296.390625 168.359375 297.339844 170.839844 C 297.539062 171.339844 297.847656 171.832031 297.25 172.488281 Z M 297.234375 172.488281 " fill-opacity="1" fill-rule="nonzero"/><path fill="#5271ff" d="M 154.957031 237.902344 C 155.460938 237.839844 155.773438 238.164062 156.023438 238.507812 C 156.730469 239.46875 157.402344 240.457031 158.089844 241.4375 C 157.867188 241.582031 157.613281 241.816406 157.546875 241.773438 C 156.625 241.136719 155.394531 239.230469 154.980469 237.875 Z M 154.957031 237.902344 " fill-opacity="1" fill-rule="nonzero"/><path fill="#5271ff" d="M 187.191406 157.699219 C 186.851562 157.15625 186.59375 156.613281 186.722656 155.945312 C 188.726562 157.839844 188.726562 157.839844 189.09375 159.019531 C 188.96875 159.199219 188.789062 159.214844 188.582031 159.019531 C 188.113281 158.582031 187.65625 158.136719 187.191406 157.699219 Z M 187.191406 157.699219 " fill-opacity="1" fill-rule="nonzero"/><path fill="#5271ff" d="M 270.523438 96.070312 C 270.726562 96.121094 271.003906 96.105469 271.117188 96.230469 C 271.832031 97.042969 272.507812 97.882812 273.472656 99.050781 C 271.445312 97.878906 271.40625 97.835938 270.589844 96.003906 Z M 270.523438 96.070312 " fill-opacity="1" fill-rule="nonzero"/><path fill="#5271ff" d="M 326.714844 252.394531 C 327.699219 252.40625 328.203125 253.050781 328.585938 253.839844 C 328.609375 253.890625 328.515625 254.023438 328.449219 254.082031 C 328.386719 254.140625 328.269531 254.234375 328.21875 254.210938 C 327.46875 253.820312 326.679688 253.453125 326.695312 252.414062 Z M 326.714844 252.394531 " fill-opacity="1" fill-rule="nonzero"/><g clip-path="url(#id2)"><path fill="#5271ff" d="M 3.464844 288.671875 C 0.0546875 285.238281 2.855469 280.960938 1.21875 276.871094 C 0.015625 273.859375 6.78125 273.183594 8.121094 269.640625 C 10.347656 267.203125 10.570312 263.191406 13.816406 261.5625 C 17.402344 260.546875 18.675781 256.75 19.636719 253.542969 C 20.9375 250.222656 24.851562 247.957031 22.660156 244.203125 C 21.816406 239.53125 27.542969 236.738281 25.976562 232.042969 C 24.753906 228.738281 24.273438 223.992188 20.984375 222.21875 C 18.925781 224.210938 14.5 223.828125 13.761719 227.144531 C 13.78125 230.636719 12.644531 234.980469 15.730469 237.542969 C 18.386719 239.304688 17.464844 244.375 13.96875 243.867188 C 9.101562 243.40625 13.0625 237.347656 10.636719 234.691406 C 9.339844 230.671875 7.808594 225.527344 11.34375 222.15625 C 14.550781 219.222656 17.941406 216.6875 21.117188 213.945312 C 23.695312 213.167969 29.308594 211.210938 25.515625 208.136719 C 21.882812 205.007812 24.199219 198.671875 29.03125 199.066406 C 34.171875 199.484375 36.441406 205.851562 34.65625 210.21875 C 32.058594 214.007812 38.929688 214.265625 40.097656 216.824219 C 41.558594 219.875 40.992188 225.265625 43.996094 226.683594 C 47.527344 225.261719 49.582031 221.703125 49.238281 217.929688 C 50.808594 213.15625 56.996094 219.414062 53.21875 222.191406 C 50.285156 224.265625 49.304688 227.933594 46.859375 230.488281 C 45.652344 233.894531 40.039062 235.035156 39.289062 230.679688 C 38.773438 234.921875 35.355469 240.519531 37.371094 244.066406 C 41.996094 246.472656 47.28125 250.105469 47.644531 255.839844 C 46.925781 259.9375 42.726562 261.949219 40.3125 264.996094 C 37.546875 267.644531 34.371094 270.140625 32.871094 273.796875 C 32.457031 276.9375 34.261719 280.25 33.328125 283.042969 C 28.738281 283.550781 27.414062 277.851562 26.289062 274.417969 C 25.507812 269.730469 32.179688 270.101562 33.390625 266.089844 C 35.1875 263.035156 36.039062 259.445312 38.921875 257.113281 C 40.582031 255.324219 35.507812 254.847656 34.089844 253.773438 C 30.691406 252.738281 29.261719 257.207031 26.769531 258.742188 C 20.296875 264.921875 13.128906 270.457031 7.53125 277.496094 C 6.261719 280.984375 4.433594 284.328125 4.199219 288.0625 L 3.917969 288.476562 Z M 3.464844 288.671875 " fill-opacity="1" fill-rule="nonzero"/></g></svg>